# This file uses meters as units for non-parametric coordinates.

mtllib brick_01.mtl
g default
v -52.117531 -28.132528 23.857178
v -46.752010 -30.355000 23.857178
v -46.752010 -28.132528 29.222698
v -46.752010 -22.767008 31.445169
v -52.117531 -22.767008 29.222698
v -54.340000 -22.767008 23.857178
v 49.981194 -28.132528 23.857178
v 52.203663 -22.767008 23.857178
v 49.981194 -22.767008 29.222698
v 44.615673 -22.767008 31.445169
v 44.615673 -28.132528 29.222698
v 44.615673 -30.355000 23.857178
v -52.117531 28.132528 23.857178
v -54.340000 22.767008 23.857178
v -52.117531 22.767008 29.222698
v -46.752010 22.767008 31.445169
v -46.752010 28.132528 29.222698
v -46.752010 30.355000 23.857178
v 52.117531 28.132528 23.857178
v 46.752010 30.355000 23.857178
v 46.752010 28.132528 29.222698
v 46.752010 22.767008 31.445169
v 52.117531 22.767008 29.222698
v 54.340000 22.767008 23.857178
v -52.117531 22.767008 -29.222698
v -54.340000 22.767008 -23.857178
v -52.117531 28.132528 -23.857178
v -46.752010 30.355000 -23.857178
v -46.752010 28.132528 -29.222698
v -46.752010 22.767008 -31.445169
v 52.117531 22.767008 -29.222698
v 46.752010 22.767008 -31.445169
v 46.752010 28.132528 -29.222698
v 46.752010 30.355000 -23.857178
v 52.117531 28.132528 -23.857178
v 54.340004 22.767008 -23.857178
v -52.117531 -28.132528 -23.857178
v -54.340000 -22.767008 -23.857178
v -52.117531 -22.767008 -29.222698
v -46.752010 -22.767008 -31.445169
v -46.752010 -28.132528 -29.222698
v -46.752010 -30.355000 -23.857178
v 49.981194 -28.132528 -23.857178
v 44.615673 -30.355000 -23.857178
v 44.615673 -28.132528 -29.222698
v 44.615673 -22.767008 -31.445169
v 49.981194 -22.767008 -29.222698
v 52.203659 -22.767008 -23.857178
v -51.131409 -27.146406 28.236576
v 48.995071 -27.146406 28.236576
v -51.131409 27.146406 28.236576
v 51.131409 27.146406 28.236576
v -51.131409 27.146406 -28.236576
v 51.131409 27.146406 -28.236576
v -51.131409 -27.146406 -28.236576
v 48.995071 -27.146406 -28.236576
v 22.804043 -26.453041 29.222698
v 22.804043 -28.675514 23.857178
v 22.804043 -29.392939 -23.857178
v 22.804043 -27.170465 -29.222698
v 22.804043 -22.767010 -31.445169
v 22.804043 19.912571 -31.445169
v 22.804043 25.278088 -29.222698
v 22.804043 27.420446 -23.857178
v 22.804043 27.420446 23.857178
v 22.804043 25.197973 29.222698
v 22.804043 22.767010 31.445169
v 22.804043 -22.767010 31.445169
v -24.797895 -28.132526 29.222698
v -24.797895 -32.662121 23.857178
v -24.797895 -32.662121 -23.857178
v -24.797895 -28.132526 -29.222698
v -24.797895 -22.767008 -31.445171
v -24.797895 22.767008 -31.445171
v -24.797895 28.935511 -29.222698
v -24.797895 31.157984 -23.857178
v -24.797895 31.157984 23.857178
v -24.797895 28.132526 29.222698
v -24.797895 22.767008 31.445171
v -24.797895 -22.767008 31.445171
v -52.117531 -12.621210 27.526363
v -46.752010 -12.592851 30.551029
v -24.797895 -12.621210 34.034019
v 22.804043 -12.621209 33.406879
v 45.091686 -12.621210 31.445169
v 50.457207 -12.621210 29.222698
v 55.958168 -12.621210 23.857178
v 55.958168 -12.621210 -23.857178
v 50.457207 -12.621210 -29.222698
v 45.091686 -12.621210 -31.445169
v 22.681223 -12.621209 -30.823124
v -24.675076 -12.621210 -35.652763
v -46.752010 -12.621210 -28.960176
v -52.117531 -12.621210 -26.737705
v -54.340000 -12.621210 -21.372185
v -54.340004 -12.621210 23.857178
v -56.032902 15.598169 23.857178
v -56.032902 15.598169 -23.857178
v -52.117531 15.598169 -29.222698
v -46.752010 15.598169 -31.445169
v -24.675076 15.598169 -35.652763
v 22.681223 15.598171 -30.823124
v 46.415665 15.598169 -31.445169
v 51.781189 15.598169 -29.222698
v 54.003662 15.598169 -23.857178
v 54.003658 7.022129 21.678112
v 51.781189 7.022129 27.043633
v 46.415665 7.022129 29.266104
v 22.804043 15.598171 33.406879
v -24.797895 15.598169 34.034019
v -46.752010 15.569810 32.339310
v -52.117531 15.598169 27.526363
vt 0.399680 0.547838
vt 0.425481 0.547838
vt 0.425481 0.777280
vt 0.399680 0.777280
vt 0.425481 0.522037
vt 0.404422 0.526779
vt 0.474268 0.547838
vt 0.474268 0.765331
vt 0.425481 0.803081
vt 0.404422 0.798339
vt 0.474268 0.530194
vt 0.609966 0.547838
vt 0.609966 0.777280
vt 0.474268 0.791132
vt 0.609966 0.530194
vt 0.644438 0.547838
vt 0.644438 0.777280
vt 0.609966 0.803081
vt 0.474405 0.515650
vt 0.609829 0.507051
vt 0.644438 0.522037
vt 0.670239 0.547838
vt 0.670239 0.777280
vt 0.644438 0.803081
vt 0.644438 0.511350
vt 0.665497 0.526779
vt 0.665497 0.798339
vt 0.149037 0.762293
vt 0.123236 0.762293
vt 0.123236 0.532852
vt 0.149037 0.532852
vt 0.149037 0.788094
vt 0.127978 0.783352
vt 0.149037 0.507051
vt 0.127978 0.511793
vt 0.197825 0.532852
vt 0.197825 0.762293
vt 0.197825 0.788094
vt 0.197825 0.507051
vt 0.333522 0.532852
vt 0.292283 0.751815
vt 0.292283 0.777616
vt 0.333522 0.507051
vt 0.367995 0.532852
vt 0.367995 0.762293
vt 0.367995 0.788094
vt 0.367995 0.507051
vt 0.393795 0.762293
vt 0.393795 0.532852
vt 0.389053 0.783352
vt 0.389053 0.511793
vt 0.931366 0.972207
vt 0.931366 0.998008
vt 0.701924 0.998008
vt 0.701924 0.972207
vt 0.957167 0.972207
vt 0.952425 0.993266
vt 0.676123 0.972207
vt 0.680865 0.993266
vt 0.701924 0.866637
vt 0.931366 0.866637
vt 0.957167 0.866637
vt 0.676123 0.866637
vt 0.701924 0.637736
vt 0.931366 0.637736
vt 0.957167 0.637736
vt 0.676123 0.637736
vt 0.701924 0.532851
vt 0.931366 0.532851
vt 0.957167 0.532851
vt 0.676123 0.532851
vt 0.931366 0.507051
vt 0.701924 0.507051
vt 0.952425 0.511792
vt 0.680865 0.511792
vt 0.304539 0.503223
vt 0.304539 0.477422
vt 0.533981 0.477422
vt 0.533981 0.503223
vt 0.278738 0.477422
vt 0.283480 0.498481
vt 0.304539 0.371852
vt 0.533981 0.371852
vt 0.559782 0.477422
vt 0.555040 0.498481
vt 0.278738 0.371852
vt 0.304539 0.142950
vt 0.533981 0.142950
vt 0.559782 0.371852
vt 0.278738 0.142950
vt 0.304539 0.027793
vt 0.533981 0.027793
vt 0.559782 0.142950
vt 0.278738 0.027793
vt 0.304539 0.001992
vt 0.533981 0.001992
vt 0.559782 0.027793
vt 0.283480 0.006734
vt 0.555040 0.006734
vt 0.027711 0.142950
vt 0.009987 0.142950
vt 0.001911 0.038066
vt 0.027711 0.038066
vt 0.027711 0.371852
vt 0.001911 0.371852
vt 0.027711 0.012265
vt 0.006652 0.017007
vt 0.076499 0.035777
vt 0.076499 0.142950
vt 0.027711 0.477422
vt 0.001911 0.477422
vt 0.076499 0.371852
vt 0.076499 0.009976
vt 0.170957 0.029410
vt 0.212196 0.142950
vt 0.027711 0.503223
vt 0.006652 0.498481
vt 0.076635 0.477422
vt 0.212196 0.371852
vt 0.170957 0.003609
vt 0.246669 0.142950
vt 0.246669 0.027793
vt 0.076499 0.503223
vt 0.212060 0.477422
vt 0.246669 0.371852
vt 0.246669 0.001992
vt 0.258359 0.142950
vt 0.272470 0.027793
vt 0.246669 0.477422
vt 0.272470 0.371852
vt 0.267728 0.006734
vt 0.272470 0.477422
vt 0.246669 0.503223
vt 0.267728 0.498481
vt 0.630729 0.503222
vt 0.630729 0.477422
vt 0.766427 0.477422
vt 0.766427 0.503222
vt 0.596257 0.503222
vt 0.596257 0.477422
vt 0.630729 0.371261
vt 0.766427 0.371261
vt 0.815214 0.477422
vt 0.815214 0.503222
vt 0.570456 0.477422
vt 0.575198 0.498481
vt 0.596257 0.371852
vt 0.766427 0.143541
vt 0.630729 0.143541
vt 0.815214 0.371852
vt 0.841015 0.477422
vt 0.836273 0.498481
vt 0.566595 0.371852
vt 0.609983 0.142950
vt 0.815214 0.142950
vt 0.766427 0.035777
vt 0.630729 0.029410
vt 0.841015 0.371852
vt 0.584182 0.142950
vt 0.596257 0.027793
vt 0.815214 0.038066
vt 0.836389 0.142950
vt 0.630729 0.003609
vt 0.766427 0.009976
vt 0.570456 0.027793
vt 0.596257 0.001992
vt 0.815214 0.012265
vt 0.841015 0.038066
vt 0.575198 0.006734
vt 0.836273 0.017007
vn -0.157050 -0.985935 0.057158
vn -0.379586 -0.924776 0.026535
vn -0.379586 -0.924776 -0.026535
vn -0.157050 -0.985935 -0.057158
vn -0.924776 -0.379586 0.026535
vn -0.989512 -0.139418 0.037794
vn -0.988575 -0.143898 -0.044867
vn -0.924776 -0.379586 -0.026535
vn 0.012392 -0.268391 0.963230
vn -0.000118 -0.440790 0.897611
vn 0.048262 -0.423142 0.904777
vn 0.092297 -0.193306 0.976788
vn 0.014748 -0.871620 0.489960
vn 0.031448 -0.997428 0.064409
vn 0.029259 -0.998601 0.044042
vn -0.007948 -0.926252 0.376821
vn -0.997513 -0.041232 0.057171
vn -0.809866 -0.005545 0.586589
vn -0.782283 -0.009904 0.622844
vn -0.998309 0.000097 0.058136
vn -0.555847 0.007496 0.831251
vn -0.214829 -0.033315 0.976083
vn -0.213904 0.012173 0.976779
vn -0.582107 -0.029451 0.812579
vn 0.935674 -0.348172 0.057369
vn 0.924776 -0.379585 0.026535
vn 0.924776 -0.379585 -0.026535
vn 0.935674 -0.348172 -0.057369
vn 0.379586 -0.924776 0.026535
vn 0.031853 -0.998935 -0.033395
vn 0.379586 -0.924776 -0.026535
vn 0.161031 0.010357 0.986895
vn 0.382272 0.046336 0.922887
vn 0.382603 -0.020444 0.923687
vn 0.178058 0.019668 0.983823
vn 0.811579 -0.012176 0.584116
vn 0.995994 -0.055966 0.069741
vn 0.997287 0.047665 0.056090
vn 0.863348 0.015919 0.504358
vn -0.956901 0.286837 0.045441
vn -0.924776 0.379586 0.026535
vn -0.924776 0.379586 -0.026535
vn -0.956289 0.288946 -0.044970
vn -0.379586 0.924776 0.026535
vn -0.106188 0.993311 0.045357
vn -0.107694 0.993409 -0.039242
vn -0.379586 0.924776 -0.026535
vn 0.010586 0.998802 0.047779
vn 0.005671 0.907008 0.421075
vn -0.049484 0.924944 0.376869
vn -0.026807 0.998901 0.038444
vn -0.000277 0.495283 0.868732
vn 0.027363 0.283688 0.958526
vn 0.130491 0.097125 0.986681
vn 0.040263 0.467380 0.883139
vn 0.379586 0.924776 0.026535
vn 0.379586 0.924776 -0.026535
vn -0.026673 0.998928 -0.037843
vn 0.924776 0.379587 0.026535
vn 0.992986 0.106690 0.050957
vn 0.993275 0.112075 -0.029065
vn 0.924776 0.379587 -0.026535
vn -0.998121 -0.001015 -0.061267
vn -0.867552 -0.033542 -0.496214
vn -0.884116 -0.025940 -0.466547
vn -0.997931 -0.042367 -0.048357
vn -0.381874 -0.065014 -0.921925
vn -0.246559 0.005394 -0.969113
vn -0.252830 -0.041346 -0.966627
vn -0.382682 -0.002264 -0.923877
vn 0.019391 0.272996 -0.961820
vn 0.001701 0.367151 -0.930160
vn 0.013561 0.376811 -0.926191
vn 0.049662 0.176101 -0.983119
vn 0.010808 0.926252 -0.376751
vn 0.011167 0.999060 -0.041884
vn -0.048223 0.927065 -0.371786
vn 0.063607 -0.011283 -0.997911
vn 0.382622 -0.017952 -0.923731
vn 0.382621 -0.017952 -0.923731
vn 0.057649 0.002928 -0.998333
vn 0.835009 -0.000320 -0.550236
vn 0.997061 0.035221 -0.068041
vn 0.995938 -0.053436 -0.072472
vn 0.811004 -0.039546 -0.583702
vn 0.031497 -0.998218 -0.050688
vn 0.014584 -0.871698 -0.489827
vn 0.018205 -0.926144 -0.376732
vn -0.000038 -0.414151 -0.910208
vn 0.019772 -0.216839 -0.976007
vn 0.061138 -0.120705 -0.990804
vn 0.050463 -0.401947 -0.914271
vn 0.044228 0.050323 0.997753
vn 0.041623 -0.041125 0.998287
vn 0.051962 -0.028965 -0.998229
vn 0.055799 0.032929 -0.997899
vn -0.908651 -0.090232 0.407691
vn -0.887919 -0.325269 0.325269
vn -0.087124 -0.858661 0.505086
vn -0.325270 -0.887919 0.325269
vn -0.052830 -0.376247 0.925012
vn -0.121659 -0.161220 0.979391
vn -0.414285 -0.008596 0.910107
vn -0.325270 -0.325269 0.887919
vn 0.325270 -0.887919 0.325269
vn 0.831491 -0.211139 0.513851
vn 0.887919 -0.325270 0.325269
vn 0.369875 -0.107578 0.922832
vn 0.325270 -0.325269 0.887919
vn -0.065520 0.903110 0.424381
vn -0.325269 0.887919 0.325269
vn -0.868049 0.157549 0.470818
vn -0.887919 0.325269 0.325269
vn -0.483700 0.079499 0.871616
vn -0.113717 0.263639 0.957895
vn -0.052830 0.376247 0.925012
vn -0.325270 0.325269 0.887919
vn 0.927130 0.016950 0.374356
vn 0.887919 0.325269 0.325269
vn 0.325270 0.887919 0.325269
vn 0.374729 -0.040562 0.926247
vn 0.325270 0.325269 0.887919
vn -0.054820 0.356829 -0.932560
vn -0.109874 0.284395 -0.952390
vn -0.366157 0.122091 -0.922509
vn -0.325270 0.325269 -0.887919
vn -0.880162 0.182865 -0.438036
vn -0.887919 0.325269 -0.325269
vn -0.081591 0.923235 -0.375472
vn -0.325270 0.887919 -0.325269
vn 0.925331 0.093735 -0.367392
vn 0.887919 0.325269 -0.325270
vn 0.366303 0.113079 -0.923599
vn 0.325270 0.325269 -0.887919
vn 0.325269 0.887919 -0.325269
vn -0.087124 -0.858661 -0.505086
vn -0.325269 -0.887919 -0.325269
vn -0.927907 -0.043696 -0.370242
vn -0.887919 -0.325269 -0.325269
vn -0.371303 0.071595 -0.925747
vn -0.148854 -0.148378 -0.977664
vn -0.052830 -0.376247 -0.925012
vn -0.325270 -0.325269 -0.887919
vn 0.831492 -0.211139 -0.513851
vn 0.887919 -0.325269 -0.325269
vn 0.325270 -0.887919 -0.325269
vn 0.369875 -0.107578 -0.922832
vn 0.325270 -0.325269 -0.887919
vn 0.020726 -0.846211 0.532444
vn 0.019468 -0.997632 0.065964
vn 0.018481 -0.998204 -0.056977
vn 0.011852 -0.846334 -0.532521
vn 0.002781 -0.403642 -0.914913
vn -0.008111 -0.237842 -0.971270
vn -0.009370 -0.048582 -0.998775
vn -0.006527 0.041553 -0.999115
vn 0.008084 0.325822 -0.945397
vn 0.014587 0.359560 -0.933008
vn 0.038706 0.924854 -0.378348
vn 0.042035 0.998287 -0.040695
vn 0.042078 0.997940 0.048428
vn 0.038198 0.897674 0.439001
vn 0.009445 0.453040 0.891440
vn -0.000703 0.351392 0.936228
vn -0.023972 0.051201 0.998401
vn -0.026004 -0.054704 0.998164
vn -0.011755 -0.261428 0.965151
vn 0.005043 -0.420544 0.907258
s 1
g pCube1
usemtl initialShadingGroup
f 2/52/1 1/53/2 37/54/3 42/55/4
s 2
f 1/1/5 6/2/6 38/3/7 37/4/8
s 3
f 68/100/9 57/101/10 11/102/11 10/103/12
s 1
f 57/66/13 58/65/14 12/69/15 11/70/16
s 2
f 96/7/17 81/11/18 112/15/19 97/12/20
s 3
f 81/11/21 82/19/22 111/20/23 112/15/24
s 7
f 8/28/25 7/29/26 43/30/27 48/31/28
s 1
f 7/72/29 12/69/15 44/68/30 43/73/31
s 3
f 85/108/32 86/113/33 107/120/34 108/114/35
s 7
f 86/38/36 87/37/37 106/41/38 107/42/39
s 2
f 14/16/40 13/22/41 27/23/42 26/17/43
s 11
f 13/76/44 18/77/45 28/78/46 27/79/47
f 65/87/48 66/90/49 21/94/50 20/91/51
s 3
f 66/127/52 67/121/53 22/122/54 21/128/55
s 11
f 20/91/51 19/95/56 35/96/57 34/92/58
s 7
f 19/48/59 24/45/60 36/44/61 35/49/62
s 2
f 98/13/63 99/18/64 94/14/65 95/8/66
s 16
f 99/135/67 100/136/68 93/137/69 94/138/70
f 62/154/71 63/159/72 33/165/73 32/160/74
s 11
f 63/93/75 64/88/76 34/92/58 33/97/77
s 16
f 103/157/78 104/163/79 89/164/80 90/156/81
s 7
f 104/43/82 105/40/83 88/36/84 89/39/85
s 1
f 59/64/86 60/67/87 45/71/88 44/68/30
s 16
f 60/162/89 61/155/90 46/161/91 45/168/92
s 3
f 108/114/35 109/115/93 84/109/94 85/108/32
s 11
f 64/88/76 65/87/48 20/91/51 34/92/58
s 16
f 90/156/81 91/148/95 102/149/96 103/157/78
s 1
f 58/65/14 59/64/86 44/68/30 12/69/15
s 7
f 87/37/37 88/36/84 105/40/83 106/41/38
s 2
f 95/8/66 96/7/17 97/12/20 98/13/63
f 5/5/97 6/2/6 1/1/5 49/6/98
s 1
f 1/53/2 2/52/1 3/56/99 49/57/100
s 3
f 3/111/101 4/110/102 5/116/103 49/117/104
s 1
f 11/70/16 12/69/15 7/72/29 50/74/105
s 7
f 7/29/26 8/28/25 9/32/106 50/33/107
s 3
f 9/106/108 10/103/12 11/102/11 50/107/109
s 11
f 17/80/110 18/77/45 13/76/44 51/81/111
s 2
f 13/22/41 14/16/40 15/21/112 51/26/113
s 3
f 15/133/114 16/129/115 17/132/116 51/134/117
s 7
f 23/46/118 24/45/60 19/48/59 52/50/119
s 11
f 19/95/56 20/91/51 21/94/50 52/98/120
s 3
f 21/128/55 22/122/54 23/126/121 52/131/122
s 16
f 29/145/123 30/140/124 25/139/125 53/146/126
s 2
f 25/24/127 26/17/43 27/23/42 53/27/128
s 11
f 27/79/47 28/78/46 29/84/129 53/85/130
s 7
f 35/49/62 36/44/61 31/47/131 54/51/132
s 16
f 31/166/133 32/160/74 33/165/73 54/169/134
s 11
f 33/97/77 34/92/58 35/96/57 54/99/135
s 1
f 41/58/136 42/55/4 37/54/3 55/59/137
s 2
f 37/4/8 38/3/7 39/9/138 55/10/139
s 16
f 39/144/140 40/143/141 41/151/142 55/152/143
s 7
f 47/34/144 48/31/28 43/30/27 56/35/145
s 1
f 43/73/31 44/68/30 45/71/88 56/75/146
s 16
f 45/168/92 46/161/91 47/167/147 56/170/148
s 1
f 69/62/149 70/61/150 58/65/14 57/66/13
f 70/61/150 71/60/151 59/64/86 58/65/14
f 71/60/151 72/63/152 60/67/87 59/64/86
s 16
f 72/158/153 73/150/154 61/155/90 60/162/89
f 91/148/95 92/142/155 101/141/156 102/149/96
f 74/147/157 75/153/158 63/159/72 62/154/71
s 11
f 75/89/159 76/83/160 64/88/76 63/93/75
f 76/83/160 77/82/161 65/87/48 64/88/76
f 77/82/161 78/86/162 66/90/49 65/87/48
s 3
f 78/130/163 79/125/164 67/121/53 66/127/52
f 109/115/93 110/119/165 83/112/166 84/109/94
f 80/104/167 69/105/168 57/101/10 68/100/9
s 1
f 3/56/99 2/52/1 70/61/150 69/62/149
f 42/55/4 71/60/151 70/61/150 2/52/1
f 42/55/4 41/58/136 72/63/152 71/60/151
s 16
f 41/151/142 40/143/141 73/150/154 72/158/153
f 100/136/68 101/141/156 92/142/155 93/137/69
f 30/140/124 29/145/123 75/153/158 74/147/157
s 11
f 29/84/129 28/78/46 76/83/160 75/89/159
f 18/77/45 77/82/161 76/83/160 28/78/46
f 18/77/45 17/80/110 78/86/162 77/82/161
s 3
f 17/132/116 16/129/115 79/125/164 78/130/163
f 82/118/22 83/112/166 110/119/165 111/124/23
f 4/110/102 3/111/101 69/105/168 80/104/167
f 5/116/103 4/110/102 82/118/22 81/123/21
f 4/110/102 80/104/167 83/112/166 82/118/22
f 84/109/94 83/112/166 80/104/167 68/100/9
f 85/108/32 84/109/94 68/100/9 10/103/12
f 10/103/12 9/106/108 86/113/33 85/108/32
s 7
f 9/32/106 8/28/25 87/37/37 86/38/36
f 8/28/25 48/31/28 88/36/84 87/37/37
f 89/39/85 88/36/84 48/31/28 47/34/144
s 16
f 90/156/81 89/164/80 47/167/147 46/161/91
f 61/155/90 91/148/95 90/156/81 46/161/91
f 73/150/154 92/142/155 91/148/95 61/155/90
f 93/137/69 92/142/155 73/150/154 40/143/141
f 94/138/70 93/137/69 40/143/141 39/144/140
s 2
f 95/8/66 94/14/65 39/9/138 38/3/7
f 38/3/7 6/2/6 96/7/17 95/8/66
f 6/2/6 5/5/97 81/11/18 96/7/17
f 98/13/63 97/12/20 14/16/40 26/17/43
f 26/17/43 25/24/127 99/18/64 98/13/63
s 16
f 25/139/125 30/140/124 100/136/68 99/135/67
f 30/140/124 74/147/157 101/141/156 100/136/68
f 102/149/96 101/141/156 74/147/157 62/154/71
f 103/157/78 102/149/96 62/154/71 32/160/74
f 32/160/74 31/166/133 104/163/79 103/157/78
s 7
f 31/47/131 36/44/61 105/40/83 104/43/82
f 106/41/38 105/40/83 36/44/61 24/45/60
f 107/42/39 106/41/38 24/45/60 23/46/118
s 3
f 108/114/35 107/120/34 23/126/121 22/122/54
f 67/121/53 109/115/93 108/114/35 22/122/54
f 79/125/164 110/119/165 109/115/93 67/121/53
f 111/124/23 110/119/165 79/125/164 16/129/115
f 112/15/24 111/20/23 16/25/115 15/21/114
s 2
f 97/12/20 112/15/19 15/21/112 14/16/40
